<svg width="19" height="19" viewBox="0 0 19 19" fill="none" xmlns="http://www.w3.org/2000/svg">
<g clip-path="url(#clip0_237_1258)">
<path d="M15.7514 1.56776C15.7514 1.42916 15.6963 1.29624 15.5983 1.19823C15.5003 1.10023 15.3674 1.04517 15.2288 1.04517H3.73158C3.59298 1.04517 3.46006 1.10023 3.36205 1.19823C3.26404 1.29624 3.20898 1.42916 3.20898 1.56776V2.09036H15.7514V1.56776Z" fill="black"/>
<path d="M16.7861 3.6581C16.7861 3.5195 16.731 3.38657 16.633 3.28856C16.535 3.19056 16.4021 3.1355 16.2635 3.1355H2.67592C2.53732 3.1355 2.40439 3.19056 2.30639 3.28856C2.20838 3.38657 2.15332 3.5195 2.15332 3.6581V4.1807H16.7861V3.6581Z" fill="black"/>
<path d="M16.7861 5.22607H2.0279C1.76732 5.22607 1.51743 5.32959 1.33317 5.51384C1.14892 5.69809 1.04541 5.94799 1.04541 6.20856V15.7408C1.04541 16.0013 1.14892 16.2512 1.33317 16.4355C1.51743 16.6197 1.76732 16.7232 2.0279 16.7232H16.7861C17.0467 16.7232 17.2966 16.6197 17.4808 16.4355C17.6651 16.2512 17.7686 16.0013 17.7686 15.7408V6.20856C17.7686 5.94799 17.6651 5.69809 17.4808 5.51384C17.2966 5.32959 17.0467 5.22607 16.7861 5.22607ZM4.47366 7.02904C4.78374 7.02904 5.08686 7.12099 5.34468 7.29326C5.6025 7.46553 5.80345 7.71039 5.92211 7.99687C6.04078 8.28334 6.07182 8.59858 6.01133 8.9027C5.95084 9.20682 5.80152 9.48618 5.58226 9.70544C5.363 9.9247 5.08364 10.074 4.77952 10.1345C4.4754 10.195 4.16017 10.164 3.87369 10.0453C3.58721 9.92663 3.34236 9.72568 3.17008 9.46786C2.99781 9.21004 2.90586 8.90692 2.90586 8.59684C2.90586 8.18103 3.07104 7.78226 3.36506 7.48824C3.65908 7.19422 4.05785 7.02904 4.47366 7.02904ZM15.6782 14.6329H3.13581L7.03439 10.729C7.10389 10.6601 7.19781 10.6214 7.29569 10.6214C7.39358 10.6214 7.4875 10.6601 7.55699 10.729L9.48016 12.6522L12.1297 9.92946C12.1992 9.86053 12.2931 9.82185 12.391 9.82185C12.4889 9.82185 12.5828 9.86053 12.6523 9.92946L15.6782 12.9553V14.6329Z" fill="black"/>
</g>
<defs>
<clipPath id="clip0_237_1258">
<rect width="18.8136" height="18.8136" fill="white"/>
</clipPath>
</defs>
</svg>
